<?xml version="1.0" encoding="UTF-8"?> <svg xmlns="http://www.w3.org/2000/svg" width="511.984" height="511.999" viewBox="0 0 511.984 511.999"> <g id="edit-tools" transform="translate(-0.5 0.001)"> <path id="Path_1" data-name="Path 1" d="M347.34,155.148a10,10,0,1,0,10,10A10,10,0,0,0,347.34,155.148Zm0,0" fill="#fcb91a"></path> <path id="Path_2" data-name="Path 2" d="M165.645,336.84a10,10,0,1,0,10,10A10,10,0,0,0,165.645,336.84Zm0,0" fill="#fcb91a"></path> <path id="Path_3" data-name="Path 3" d="M500.059,61.52a9.992,9.992,0,0,0-9.359,2.7L449.242,106H429.367L407.488,83.332V63.18l40.863-41.473a10,10,0,0,0-3.93-16.492,100.077,100.077,0,0,0-128.547,120.7l-73.66,73.66L119.5,76.57V52.43a10,10,0,0,0-4.855-8.574L43.934,1.426a9.992,9.992,0,0,0-12.215,1.5L3.438,31.207a10.009,10.009,0,0,0-1.5,12.219l42.422,70.707a10,10,0,0,0,8.57,4.855L77.059,119l122.73,123L126.41,315.375A100.062,100.062,0,0,0,5.715,443.922a10,10,0,0,0,16.574,3.852l41.453-41.781H83.727l22.77,22.77v19.984L64.715,490.2a10,10,0,0,0,3.852,16.574,100.022,100.022,0,0,0,113.094-36.43,98.883,98.883,0,0,0,15.453-84.266l58.934-58.934,13.5,14.664-6.2,6.191A10,10,0,0,0,277.5,362.145l5.609-5.609L409.77,494.121c.094.1.191.2.289.3a60,60,0,0,0,84.859-84.859c-.1-.1-.207-.2-.312-.3L356.8,282.84l5.547-5.547a10,10,0,0,0-14.145-14.141l-6.152,6.156-14.691-13.484,59.219-59.219A100.055,100.055,0,0,0,507.27,68.066,9.99,9.99,0,0,0,500.059,61.52ZM88.285,101.934A9.9,9.9,0,0,0,81.211,99.1L58.594,99.09,23.1,39.832,40.34,22.594,99.5,58.094V80.711a10,10,0,0,0,2.922,7.063L228.074,213.715,213.93,227.855ZM342.648,297l138.27,126.848a40.006,40.006,0,0,1-56.582,56.57L297.258,342.379ZM327.9,283.461l-44.2,44.191-13.5-14.664,43.008-43.012ZM412.488,180a79.917,79.917,0,0,1-25.559-4.168,10.017,10.017,0,0,0-10.262,2.406c-50.133,50.133-158.156,158.152-197.934,197.934a10,10,0,0,0-2.406,10.266A80.079,80.079,0,0,1,100.5,491.988a81.912,81.912,0,0,1-8.719-.469L123.539,460a10,10,0,0,0,2.957-7.1V424.617a10,10,0,0,0-2.93-7.07L94.938,388.918a10,10,0,0,0-7.07-2.93H59.578a10.012,10.012,0,0,0-7.1,2.957L20.965,420.707a80.9,80.9,0,0,1-.469-8.719,80.08,80.08,0,0,1,105.559-75.832,9.993,9.993,0,0,0,10.262-2.406c.551-.547,197.793-197.793,197.934-197.934a10,10,0,0,0,2.406-10.262A80.071,80.071,0,0,1,412.484,20a81.721,81.721,0,0,1,8.98.5l-31.1,31.566a9.993,9.993,0,0,0-2.875,7.016V87.367a9.988,9.988,0,0,0,2.8,6.945l27.629,28.629a9.992,9.992,0,0,0,7.2,3.055h28.289a9.994,9.994,0,0,0,7.1-2.957l31.512-31.758a80.9,80.9,0,0,1,.469,8.719A80.087,80.087,0,0,1,412.488,180Zm0,0" fill="#fcb91a"></path> <path id="Path_4" data-name="Path 4" d="M311.988,186.355,186.852,311.492A10,10,0,0,0,201,325.633L326.133,200.5a10,10,0,0,0-14.145-14.141Zm0,0" fill="#fcb91a"></path> <path id="Path_5" data-name="Path 5" d="M438.355,452a10,10,0,1,0,14.121-14.164L362.34,347.988a10,10,0,0,0-14.121,14.164Zm0,0" fill="#fcb91a"></path> </g> </svg> 