<?xml version="1.0" encoding="UTF-8"?> <svg xmlns="http://www.w3.org/2000/svg" width="360" height="512" viewBox="0 0 360 512"> <g id="signs" transform="translate(-76)"> <g id="Group_12" data-name="Group 12"> <g id="Group_11" data-name="Group 11"> <path id="Path_6" data-name="Path 6" d="M256,0C156.748,0,76,80.748,76,180a179.618,179.618,0,0,0,26.869,94.652L245.754,504.909A15,15,0,0,0,258.5,512h.119a15,15,0,0,0,12.75-7.292L410.611,272.22A179.786,179.786,0,0,0,436,180C436,80.748,355.252,0,256,0ZM384.866,256.818,258.272,468.186l-129.9-209.34A149.815,149.815,0,0,1,105.8,180c0-82.71,67.49-150.2,150.2-150.2S406.1,97.29,406.1,180A149.868,149.868,0,0,1,384.866,256.818Z" fill="#fcb91a"></path> </g> </g> <g id="Group_14" data-name="Group 14"> <g id="Group_13" data-name="Group 13"> <path id="Path_7" data-name="Path 7" d="M256,90a90,90,0,1,0,90,90A90.1,90.1,0,0,0,256,90Zm0,150.2A60.2,60.2,0,1,1,316.1,180,60.246,60.246,0,0,1,256,240.2Z" fill="#fcb91a"></path> </g> </g> </g> </svg> 