<?xml version="1.0" encoding="UTF-8"?> <svg xmlns="http://www.w3.org/2000/svg" width="388.203" height="511.999" viewBox="0 0 388.203 511.999"> <g id="medal" transform="translate(-61.898 0)"> <g id="Group_2" data-name="Group 2"> <g id="Group_1" data-name="Group 1"> <path id="Path_1" data-name="Path 1" d="M321.356,63.8a145.485,145.485,0,0,0-168.81,27.075c-51.9,51.894-57.089,134.64-12.081,192.474a8.069,8.069,0,0,0,12.736-9.911c-40.019-51.422-35.394-125,10.757-171.153A129.377,129.377,0,0,1,314.08,78.2a8.068,8.068,0,1,0,7.276-14.4Z" fill="#fcb91a"></path> </g> </g> <g id="Group_4" data-name="Group 4"> <g id="Group_3" data-name="Group 3"> <path id="Path_2" data-name="Path 2" d="M385.787,128.239a8.069,8.069,0,0,0-14.406,7.275,129.386,129.386,0,0,1-24.1,150.1c-46.152,46.15-119.731,50.774-171.153,10.757a8.068,8.068,0,1,0-9.91,12.735A145.8,145.8,0,0,0,385.787,128.239Z" fill="#fcb91a"></path> </g> </g> <g id="Group_6" data-name="Group 6"> <g id="Group_5" data-name="Group 5"> <path id="Path_3" data-name="Path 3" d="M364.94,97.508c-2-2.262-4.1-4.5-6.242-6.638s-4.376-4.243-6.638-6.242a8.069,8.069,0,0,0-10.688,12.091c2.015,1.78,4.005,3.652,5.915,5.561s3.78,3.9,5.561,5.914A8.069,8.069,0,0,0,364.94,97.508Z" fill="#fcb91a"></path> </g> </g> <g id="Group_8" data-name="Group 8"> <g id="Group_7" data-name="Group 7"> <path id="Path_4" data-name="Path 4" d="M446.066,208.41a27.381,27.381,0,0,0,0-28.616l-10.615-17.407a11.358,11.358,0,0,1-1.521-7.67l3.164-20.1a27.369,27.369,0,0,0-10.982-26.5L409.659,96.149a11.361,11.361,0,0,1-4.354-6.506l-4.791-19.8A27.373,27.373,0,0,0,380.267,49.6l-19.8-4.792a11.355,11.355,0,0,1-6.506-4.354L341.993,23.994a27.364,27.364,0,0,0-26.5-10.983l-20.11,3.164a11.359,11.359,0,0,1-7.669-1.521L270.308,4.036a27.379,27.379,0,0,0-28.616,0L224.284,14.651a11.358,11.358,0,0,1-7.67,1.521l-20.1-3.164a27.37,27.37,0,0,0-26.5,10.983L158.047,40.442a11.362,11.362,0,0,1-6.508,4.354l-19.8,4.791a27.376,27.376,0,0,0-20.249,20.247l-4.792,19.8a11.35,11.35,0,0,1-4.354,6.506L85.89,108.108a27.367,27.367,0,0,0-10.983,26.5l3.164,20.111a11.358,11.358,0,0,1-1.521,7.669L65.933,179.795a27.381,27.381,0,0,0,0,28.615l10.615,17.408a11.358,11.358,0,0,1,1.521,7.67l-3.164,20.1a27.367,27.367,0,0,0,10.982,26.5l16.451,11.966a11.354,11.354,0,0,1,4.354,6.506l4.791,19.8a27.373,27.373,0,0,0,20.247,20.249l8.268,2L84.045,465.425a8.069,8.069,0,0,0,8.32,11.312l45.022-5.383,25.936,37.191A8.07,8.07,0,0,0,169.939,512c.251,0,.505-.012.757-.035a8.072,8.072,0,0,0,6.608-4.732l57.145-127.479,7.241,4.415a27.38,27.38,0,0,0,28.616,0l7.5-4.574,57.217,127.638a8.067,8.067,0,0,0,6.608,4.732c.253.024.506.036.757.036a8.069,8.069,0,0,0,6.616-3.453l25.936-37.191,45.022,5.383a8.069,8.069,0,0,0,8.32-11.312L372.3,340.543l7.957-1.925a27.376,27.376,0,0,0,20.249-20.247l4.792-19.8a11.354,11.354,0,0,1,4.354-6.506L426.108,280.1a27.367,27.367,0,0,0,10.983-26.5l-3.164-20.111a11.358,11.358,0,0,1,1.521-7.669ZM168.408,487.627l-20.554-29.474a8.064,8.064,0,0,0-7.576-3.4L104.6,459.023,155.578,345.3a11.284,11.284,0,0,1,2.457,2.455L170,364.21a27.734,27.734,0,0,0,3.808,4.242l-26.833,59.857a8.068,8.068,0,1,0,14.724,6.6l26.738-59.644a27.616,27.616,0,0,0,8.059-.073l20.11-3.164a11.328,11.328,0,0,1,3.606.024Zm239.324-28.606-35.68-4.264a8.064,8.064,0,0,0-7.576,3.4l-20.554,29.474L292.093,372.008a11.359,11.359,0,0,1,3.293.024l20.1,3.164a27.634,27.634,0,0,0,8.379.024l26.758,59.692a8.068,8.068,0,1,0,14.724-6.6l-26.935-60.085a27.77,27.77,0,0,0,3.571-4.013l11.966-16.451a11.327,11.327,0,0,1,2.716-2.645Zm24.555-259.013L421.67,217.419A27.52,27.52,0,0,0,417.986,236l3.164,20.11a11.3,11.3,0,0,1-4.534,10.938L400.16,279.014a27.514,27.514,0,0,0-10.545,15.76l-4.792,19.8a11.3,11.3,0,0,1-8.359,8.359l-19.8,4.791A27.512,27.512,0,0,0,340.9,338.27l-11.966,16.451A11.293,11.293,0,0,1,318,359.254l-20.1-3.164a27.518,27.518,0,0,0-18.581,3.684L261.9,370.389a11.307,11.307,0,0,1-11.812,0l-17.411-10.616a27.5,27.5,0,0,0-18.579-3.684l-20.111,3.164a11.3,11.3,0,0,1-10.938-4.534l-11.969-16.455a27.514,27.514,0,0,0-15.76-10.545l-19.8-4.792a11.3,11.3,0,0,1-8.359-8.359l-4.791-19.8a27.51,27.51,0,0,0-10.546-15.763l-16.45-11.967A11.3,11.3,0,0,1,90.846,256.1L94.01,236a27.515,27.515,0,0,0-3.684-18.58L79.711,200.007a11.3,11.3,0,0,1,0-11.812l10.617-17.411a27.515,27.515,0,0,0,3.684-18.578L90.848,132.1a11.3,11.3,0,0,1,4.534-10.938l16.456-11.969a27.514,27.514,0,0,0,10.545-15.76l4.792-19.8a11.3,11.3,0,0,1,8.359-8.359l19.8-4.791A27.507,27.507,0,0,0,171.1,49.933l11.966-16.451A11.294,11.294,0,0,1,194,28.948l20.1,3.164a27.5,27.5,0,0,0,18.581-3.684l17.407-10.615a11.307,11.307,0,0,1,11.812,0l17.411,10.616a27.5,27.5,0,0,0,18.579,3.685l20.111-3.164a11.3,11.3,0,0,1,10.938,4.534l11.969,16.455a27.514,27.514,0,0,0,15.76,10.545l19.8,4.792a11.3,11.3,0,0,1,8.359,8.359l4.791,19.8A27.51,27.51,0,0,0,400.168,109.2l16.451,11.966a11.3,11.3,0,0,1,4.533,10.939l-3.164,20.1a27.515,27.515,0,0,0,3.684,18.58l10.615,17.409A11.3,11.3,0,0,1,432.287,200.008Z" fill="#fcb91a"></path> </g> </g> <g id="Group_10" data-name="Group 10"> <g id="Group_9" data-name="Group 9"> <path id="Path_5" data-name="Path 5" d="M350.416,169a14.435,14.435,0,0,0-12.149-9.974l-48.551-5.757-20.478-44.4a14.581,14.581,0,0,0-26.48,0l-20.478,44.4-48.551,5.757a14.58,14.58,0,0,0-8.183,25.181l35.9,33.2-9.528,47.954A14.628,14.628,0,0,0,206.2,282.8a14.589,14.589,0,0,0,7.14-1.884L256,257.038l42.662,23.879a14.579,14.579,0,0,0,21.422-15.563L310.553,217.4l35.895-33.2A14.435,14.435,0,0,0,350.416,169ZM296.282,208.62a8.071,8.071,0,0,0-2.436,7.5l9.75,49.071L259.938,240.75a8.068,8.068,0,0,0-7.882,0L208.4,265.187l9.75-49.071a8.063,8.063,0,0,0-2.436-7.5L178.98,174.65l49.686-5.891a8.071,8.071,0,0,0,6.377-4.632L256,118.7l20.955,45.431a8.07,8.07,0,0,0,6.377,4.632l49.684,5.891Z" fill="#fcb91a"></path> </g> </g> </g> </svg> 