<?xml version="1.0" encoding="UTF-8"?> <svg xmlns="http://www.w3.org/2000/svg" width="480.002" height="488" viewBox="0 0 480.002 488"> <g id="Outline" transform="translate(-7.999 -8)"> <rect id="Rectangle_1" data-name="Rectangle 1" width="16" height="16" transform="translate(120 448)" fill="#fcb91a"></rect> <path id="Path_1" data-name="Path 1" d="M304,352H168V232a8,8,0,0,0-8-8H16a8,8,0,0,0-8,8V488a8,8,0,0,0,8,8H304a8,8,0,0,0,8-8V360A8,8,0,0,0,304,352Zm-88,16h32v32H216ZM72,240h32v32H72Zm-48,0H56v40a8,8,0,0,0,8,8h48a8,8,0,0,0,8-8V240h32V352H24ZM72,368h32v32H72Zm-48,0H56v40a8,8,0,0,0,8,8h48a8,8,0,0,0,8-8V368h32V480H24ZM296,480H168V368h32v40a8,8,0,0,0,8,8h48a8,8,0,0,0,8-8V368h32Z" fill="#fcb91a"></path> <rect id="Rectangle_2" data-name="Rectangle 2" width="16" height="16" transform="translate(264 448)" fill="#fcb91a"></rect> <rect id="Rectangle_3" data-name="Rectangle 3" width="16" height="16" transform="translate(120 320)" fill="#fcb91a"></rect> <path id="Path_2" data-name="Path 2" d="M478.123,111.776A7.941,7.941,0,0,0,480,112a8.023,8.023,0,0,0,6.926-3.984,8.237,8.237,0,0,0,1.074-4.2V72a8,8,0,0,0-6.122-7.776l-232-56a7.967,7.967,0,0,0-3.754,0l-232,56A8,8,0,0,0,8,72v31.773a8.322,8.322,0,0,0,1.374,4.718,8.013,8.013,0,0,0,8.5,3.285L32,108.367V208H48V104.5L248,56.229l200,48.276V480H400V168a8,8,0,0,0-8-8H104a8,8,0,0,0-8,8v32a8,8,0,0,0,8,8H384v16H184v16H384v16H184v16H384v16H184v16H384V480H328v16H488V480H464V108.367ZM112,192V176H384v16ZM248,40a7.943,7.943,0,0,0-1.877.224L24,93.839V78.3L248,24.23,472,78.3V93.84L249.877,40.224A7.943,7.943,0,0,0,248,40Z" fill="#fcb91a"></path> <path id="Path_3" data-name="Path 3" d="M264,136a24,24,0,1,0,0-48H232a24,24,0,1,0,0,48Zm-40-24a8.009,8.009,0,0,1,8-8h32a8,8,0,0,1,0,16H232a8.009,8.009,0,0,1-8-8Z" fill="#fcb91a"></path> </g> </svg> 