<?xml version="1.0" encoding="UTF-8"?> <svg xmlns="http://www.w3.org/2000/svg" width="511.999" height="366.934" viewBox="0 0 511.999 366.934"> <g id="over-wheels" transform="translate(0 -72.533)"> <g id="Group_16" data-name="Group 16"> <g id="Group_15" data-name="Group 15"> <path id="Path_8" data-name="Path 8" d="M119.467,337.067a51.2,51.2,0,1,0,51.2,51.2A51.251,51.251,0,0,0,119.467,337.067Zm0,85.333A34.133,34.133,0,1,1,153.6,388.267,34.167,34.167,0,0,1,119.467,422.4Z" fill="#fcb91a"></path> </g> </g> <g id="Group_18" data-name="Group 18"> <g id="Group_17" data-name="Group 17"> <path id="Path_9" data-name="Path 9" d="M409.6,337.067a51.2,51.2,0,1,0,51.2,51.2A51.251,51.251,0,0,0,409.6,337.067Zm0,85.333a34.133,34.133,0,1,1,34.133-34.133A34.167,34.167,0,0,1,409.6,422.4Z" fill="#fcb91a"></path> </g> </g> <g id="Group_20" data-name="Group 20"> <g id="Group_19" data-name="Group 19"> <path id="Path_10" data-name="Path 10" d="M510.643,289.784l-76.8-119.467a8.535,8.535,0,0,0-7.177-3.917H332.8a8.531,8.531,0,0,0-8.533,8.533V388.266A8.525,8.525,0,0,0,332.8,396.8h34.133V379.732h-25.6V183.467h80.674l72.926,113.442v82.825H452.266V396.8h51.2A8.525,8.525,0,0,0,512,388.267V294.4A8.511,8.511,0,0,0,510.643,289.784Z" fill="#fcb91a"></path> </g> </g> <g id="Group_22" data-name="Group 22"> <g id="Group_21" data-name="Group 21"> <path id="Path_11" data-name="Path 11" d="M375.467,277.333V217.6h68.267V200.533h-76.8a8.531,8.531,0,0,0-8.533,8.533v76.8a8.525,8.525,0,0,0,8.533,8.533h128V277.332H375.467Z" fill="#fcb91a"></path> </g> </g> <g id="Group_24" data-name="Group 24"> <g id="Group_23" data-name="Group 23"> <path id="Path_12" data-name="Path 12" d="M332.8,106.667H8.533A8.536,8.536,0,0,0,0,115.2V388.267A8.531,8.531,0,0,0,8.533,396.8H76.8V379.733H17.067v-256h307.2v256H162.133V396.8H332.8a8.525,8.525,0,0,0,8.533-8.533V115.2A8.531,8.531,0,0,0,332.8,106.667Z" fill="#fcb91a"></path> </g> </g> <g id="Group_26" data-name="Group 26"> <g id="Group_25" data-name="Group 25"> <rect id="Rectangle_1" data-name="Rectangle 1" width="51.2" height="17.067" transform="translate(8.533 345.6)" fill="#fcb91a"></rect> </g> </g> <g id="Group_28" data-name="Group 28"> <g id="Group_27" data-name="Group 27"> <rect id="Rectangle_2" data-name="Rectangle 2" width="145.067" height="17.067" transform="translate(179.2 345.6)" fill="#fcb91a"></rect> </g> </g> <g id="Group_30" data-name="Group 30"> <g id="Group_29" data-name="Group 29"> <rect id="Rectangle_3" data-name="Rectangle 3" width="34.133" height="17.067" transform="translate(469.333 345.6)" fill="#fcb91a"></rect> </g> </g> <g id="Group_32" data-name="Group 32"> <g id="Group_31" data-name="Group 31"> <rect id="Rectangle_4" data-name="Rectangle 4" width="298.667" height="17.067" transform="translate(34.133 140.8)" fill="#fcb91a"></rect> </g> </g> <g id="Group_34" data-name="Group 34"> <g id="Group_33" data-name="Group 33"> <rect id="Rectangle_5" data-name="Rectangle 5" width="17.067" height="17.067" transform="translate(110.933 379.733)" fill="#fcb91a"></rect> </g> </g> <g id="Group_36" data-name="Group 36"> <g id="Group_35" data-name="Group 35"> <rect id="Rectangle_6" data-name="Rectangle 6" width="17.067" height="17.067" transform="translate(401.067 379.733)" fill="#fcb91a"></rect> </g> </g> <g id="Group_38" data-name="Group 38"> <g id="Group_37" data-name="Group 37"> <rect id="Rectangle_7" data-name="Rectangle 7" width="119.467" height="17.067" transform="translate(34.133 72.533)" fill="#fcb91a"></rect> </g> </g> <g id="Group_40" data-name="Group 40"> <g id="Group_39" data-name="Group 39"> <rect id="Rectangle_8" data-name="Rectangle 8" width="17.067" height="17.067" transform="translate(0 72.533)" fill="#fcb91a"></rect> </g> </g> </g> </svg> 