<?xml version="1.0" encoding="UTF-8"?> <svg xmlns="http://www.w3.org/2000/svg" width="468" height="362" viewBox="0 0 468 362"> <g id="transportation" transform="translate(0 -53)"> <g id="Group_2" data-name="Group 2"> <g id="Group_1" data-name="Group 1"> <path id="Path_1" data-name="Path 1" d="M450.1,187.5l-10.2-10.8L404.1,80.2A41.99,41.99,0,0,0,365,53H109.3A41.847,41.847,0,0,0,70.2,80.2L34.9,175.5,20.2,189.1A57.457,57.457,0,0,0,0,232.8V373.4A41.8,41.8,0,0,0,41.8,415H68.2A41.8,41.8,0,0,0,110,373.4V353H358v20.4A41.8,41.8,0,0,0,399.8,415h26.4A41.8,41.8,0,0,0,468,373.4V229.1A57.987,57.987,0,0,0,450.1,187.5ZM89,87a21.627,21.627,0,0,1,20.3-14H365.1a21.771,21.771,0,0,1,20.3,14l31.2,84H393.3a68.59,68.59,0,0,0-135.7,0H57.8Zm283.9,84H277.8a48.574,48.574,0,0,1,95.1,0ZM90,373.4A21.745,21.745,0,0,1,68.2,395H41.8A21.745,21.745,0,0,1,20,373.4V347.2c6,3.9,13.9,5.8,21.8,5.8H90Zm358,0A21.745,21.745,0,0,1,426.2,395H399.8A21.81,21.81,0,0,1,378,373.4V353h48.2c7.9,0,15.8-1.9,21.8-5.8v26.2ZM426.2,333H41.8A21.574,21.574,0,0,1,20,311.6V232.8a37.544,37.544,0,0,1,13.3-28.6l.4-.4L47.3,191H426l9.6,10.3c.1.2.4.3.5.5a37.688,37.688,0,0,1,11.8,27.3v82.5h.1A21.639,21.639,0,0,1,426.2,333Z" fill="#fcb91a"></path> </g> </g> <g id="Group_4" data-name="Group 4"> <g id="Group_3" data-name="Group 3"> <path id="Path_2" data-name="Path 2" d="M132,231H57a10.029,10.029,0,0,0-10,10v52a10.029,10.029,0,0,0,10,10h75a10.029,10.029,0,0,0,10-10V241A10.029,10.029,0,0,0,132,231Zm-10,52H67V251h55Z" fill="#fcb91a"></path> </g> </g> <g id="Group_6" data-name="Group 6"> <g id="Group_5" data-name="Group 5"> <path id="Path_3" data-name="Path 3" d="M411,231H336a10.029,10.029,0,0,0-10,10v52a10.029,10.029,0,0,0,10,10h75a10.029,10.029,0,0,0,10-10V241A10.029,10.029,0,0,0,411,231Zm-10,52H346V251h55Z" fill="#fcb91a"></path> </g> </g> <g id="Group_8" data-name="Group 8"> <g id="Group_7" data-name="Group 7"> <path id="Path_4" data-name="Path 4" d="M282.3,273H185.7a10,10,0,0,0,0,20h96.6a10,10,0,0,0,0-20Z" fill="#fcb91a"></path> </g> </g> <g id="Group_10" data-name="Group 10"> <g id="Group_9" data-name="Group 9"> <path id="Path_5" data-name="Path 5" d="M282.3,242H185.7a10,10,0,0,0,0,20h96.6a10,10,0,0,0,0-20Z" fill="#fcb91a"></path> </g> </g> </g> </svg> 