<?xml version="1.0" encoding="UTF-8"?> <svg xmlns="http://www.w3.org/2000/svg" id="transport" width="496" height="496" viewBox="0 0 496 496"> <path id="Path_1" data-name="Path 1" d="M248,0C111.246,0,0,111.258,0,248S111.246,496,248,496,496,384.742,496,248,384.754,0,248,0ZM479.8,256a230.816,230.816,0,0,1-14.543,73.328L435.84,317.145l-6.129,14.785L459.078,344.1a232.735,232.735,0,0,1-41.59,62.086L395.07,383.77l-11.309,11.309L406.176,417.5a232.524,232.524,0,0,1-62.086,41.582l-12.16-29.367-14.785,6.129,12.184,29.406A230.283,230.283,0,0,1,256,479.793V448H240v31.8a230.816,230.816,0,0,1-73.328-14.543l12.184-29.41-14.785-6.129L151.91,459.09A232.815,232.815,0,0,1,89.824,417.5l22.414-22.414L100.93,383.777,78.512,406.191A232.776,232.776,0,0,1,36.922,344.1L66.289,331.93,60.16,317.145,30.742,329.328A230.816,230.816,0,0,1,16.2,256H48V240H16.2a230.816,230.816,0,0,1,14.543-73.328L60.16,178.855l6.129-14.785L36.922,151.9a232.9,232.9,0,0,1,41.59-62.094l22.418,22.414,11.309-11.312L89.824,78.5A232.63,232.63,0,0,1,151.91,36.91l12.16,29.371,14.785-6.129-12.184-29.41A230.816,230.816,0,0,1,240,16.2V48h16V16.2a230.816,230.816,0,0,1,73.328,14.543L317.152,60.16l14.785,6.129L344.1,36.922A232.524,232.524,0,0,1,406.184,78.5L383.77,100.922l11.309,11.309L417.5,89.816A232.841,232.841,0,0,1,459.09,151.9L429.719,164.07l6.129,14.785,29.418-12.184A230.6,230.6,0,0,1,479.809,240H448v16Zm0,0" fill="#fcb91a"></path> <path id="Path_2" data-name="Path 2" d="M248,64C146.535,64,64,146.543,64,248s82.535,184,184,184,184-82.543,184-184S349.465,64,248,64Zm0,352c-92.633,0-168-75.359-168-168S155.367,80,248,80s168,75.359,168,168S340.633,416,248,416Zm0,0" fill="#fcb91a"></path> <path id="Path_3" data-name="Path 3" d="M248,96C164.184,96,96,164.184,96,248s68.184,152,152,152,152-68.184,152-152S331.816,96,248,96Zm112.9,76.289-85.023,37.344,9.234-92.352A136.358,136.358,0,0,1,360.9,172.289ZM248,272a24,24,0,1,1,24-24A24.031,24.031,0,0,1,248,272Zm-39.937-24.594-94.246-20.527a134.606,134.606,0,0,1,13.191-40.664l88.367,38.809A39.533,39.533,0,0,0,208.063,247.406Zm79.875,0a39.688,39.688,0,0,0-7.3-22.391L369,186.207a134.965,134.965,0,0,1,13.191,40.664ZM269.375,113.848l-9.605,96.121a36.165,36.165,0,0,0-23.539,0l-9.605-96.121a124.564,124.564,0,0,1,42.75,0Zm-58.488,3.434,9.234,92.352L135.1,172.289A136.358,136.358,0,0,1,210.887,117.281ZM112.258,242.91l90.637,19.746L141.184,331.9A135.208,135.208,0,0,1,112,248C112,246.281,112.191,244.617,112.258,242.91ZM151.8,344.031l64.3-72.152A39.9,39.9,0,0,0,235.152,285.7l-48.727,83.418A136.653,136.653,0,0,1,151.8,344.031Zm49.406,31.5L248,295.426l46.793,80.109a133.509,133.509,0,0,1-93.586-.008Zm108.359-6.422L260.84,285.688a39.9,39.9,0,0,0,19.047-13.816l64.3,72.152A136,136,0,0,1,309.566,369.105Zm45.25-37.2-61.711-69.246,90.637-19.746c.066,1.707.258,3.371.258,5.09A135.208,135.208,0,0,1,354.816,331.9Zm0,0" fill="#fcb91a"></path> </svg> 